<svg width="18" height="18" viewBox="0 0 18 18" fill="none" xmlns="http://www.w3.org/2000/svg">
<path d="M10.9825 9.00083L17.7124 2.27059C17.8976 2.08532 17.9997 1.83815 18 1.57459C18 1.31088 17.8979 1.06342 17.7124 0.878443L17.1227 0.288834C16.9373 0.103126 16.6901 0.00141907 16.4262 0.00141907C16.1628 0.00141907 15.9157 0.103126 15.7302 0.288834L9.00029 7.01864L2.27005 0.288834C2.08493 0.103126 1.83761 0.00141907 1.5739 0.00141907C1.31049 0.00141907 1.06317 0.103126 0.878049 0.288834L0.288 0.878443C-0.096 1.26244 -0.096 1.88703 0.288 2.27059L7.0181 9.00083L0.288 15.7308C0.102732 15.9163 0.000731707 16.1635 0.000731707 16.4271C0.000731707 16.6906 0.102732 16.9378 0.288 17.1232L0.877902 17.7128C1.06302 17.8984 1.31049 18.0002 1.57376 18.0002C1.83746 18.0002 2.08478 17.8984 2.2699 17.7128L9.00015 10.9829L15.7301 17.7128C15.9155 17.8984 16.1627 18.0002 16.4261 18.0002H16.4264C16.69 18.0002 16.9371 17.8984 17.1225 17.7128L17.7123 17.1232C17.8974 16.938 17.9996 16.6906 17.9996 16.4271C17.9996 16.1635 17.8974 15.9163 17.7123 15.7309L10.9825 9.00083Z" fill="#F94242"/>
</svg>
