<svg width="159" height="37" viewBox="0 0 159 37" fill="none" xmlns="http://www.w3.org/2000/svg">
<path d="M59.4254 25.2273L56.9269 21.6198H56.7788H54.1692V25.2273H51.1709V12.2773H56.7788C57.9263 12.2773 58.9196 12.4684 59.7586 12.8508C60.6099 13.2331 61.2639 13.7758 61.7204 14.4788C62.177 15.1818 62.4052 16.0143 62.4052 16.9763C62.4052 17.9383 62.1708 18.7708 61.7019 19.4738C61.2454 20.1644 60.5914 20.6948 59.7401 21.0648L62.6458 25.2273H59.4254ZM59.3699 16.9763C59.3699 16.2486 59.1355 15.6936 58.6666 15.3113C58.1978 14.9166 57.513 14.7193 56.6122 14.7193H54.1692V19.2333H56.6122C57.513 19.2333 58.1978 19.0359 58.6666 18.6413C59.1355 18.2466 59.3699 17.6916 59.3699 16.9763ZM69.5002 20.1398L67.7605 21.9528V25.2273H64.7807V12.2773H67.7605V18.3268L73.4979 12.2773H76.8294L71.4621 18.0493L77.144 25.2273H73.646L69.5002 20.1398ZM84.285 25.4493C82.9403 25.4493 81.725 25.1594 80.6392 24.5798C79.5657 24.0001 78.7205 23.2046 78.1036 22.1933C77.4989 21.1696 77.1967 20.0226 77.1967 18.7523C77.1967 17.4819 77.4989 16.3411 78.1036 15.3298C78.7205 14.3061 79.5657 13.5044 80.6392 12.9248C81.725 12.3451 82.9403 12.0553 84.285 12.0553C85.6302 12.0553 86.8391 12.3451 87.9125 12.9248C88.986 13.5044 89.8315 14.3061 90.4481 15.3298C91.0656 16.3411 91.3735 17.4819 91.3735 18.7523C91.3735 20.0226 91.0656 21.1696 90.4481 22.1933C89.8315 23.2046 88.986 24.0001 87.9125 24.5798C86.8391 25.1594 85.6302 25.4493 84.285 25.4493ZM84.285 22.8963C85.0505 22.8963 85.7412 22.7236 86.3579 22.3783C86.9753 22.0206 87.4566 21.5273 87.8015 20.8983C88.1599 20.2693 88.3382 19.5539 88.3382 18.7523C88.3382 17.9506 88.1599 17.2353 87.8015 16.6063C87.4566 15.9773 86.9753 15.4901 86.3579 15.1448C85.7412 14.7871 85.0505 14.6083 84.285 14.6083C83.5203 14.6083 82.8292 14.7871 82.2123 15.1448C81.5954 15.4901 81.108 15.9773 80.7502 16.6063C80.4047 17.2353 80.232 17.9506 80.232 18.7523C80.232 19.5539 80.4047 20.2693 80.7502 20.8983C81.108 21.5273 81.5954 22.0206 82.2123 22.3783C82.8292 22.7236 83.5203 22.8963 84.285 22.8963Z" fill="url(#paint0_linear)"/>
<path d="M104.519 25.3383C103.236 25.3383 102.07 25.0546 101.021 24.4873C99.9845 23.9076 99.1701 23.1183 98.5779 22.1193C97.9982 21.1203 97.708 19.9979 97.708 18.7523C97.708 17.5066 97.9982 16.3843 98.5779 15.3853C99.1701 14.3863 99.9845 13.6031 101.021 13.0358C102.07 12.4561 103.236 12.1663 104.519 12.1663C105.802 12.1663 106.956 12.4499 107.98 13.0173C109.016 13.5846 109.831 14.3739 110.423 15.3853C111.015 16.3843 111.311 17.5066 111.311 18.7523C111.311 19.9979 111.015 21.1264 110.423 22.1378C109.831 23.1368 109.016 23.9199 107.98 24.4873C106.956 25.0546 105.802 25.3383 104.519 25.3383ZM104.519 24.1173C105.543 24.1173 106.468 23.8891 107.295 23.4328C108.122 22.9641 108.77 22.3228 109.238 21.5088C109.707 20.6824 109.942 19.7636 109.942 18.7523C109.942 17.7409 109.707 16.8283 109.238 16.0143C108.77 15.1879 108.122 14.5466 107.295 14.0903C106.468 13.6216 105.543 13.3873 104.519 13.3873C103.495 13.3873 102.563 13.6216 101.724 14.0903C100.897 14.5466 100.244 15.1879 99.7624 16.0143C99.2938 16.8283 99.0591 17.7409 99.0591 18.7523C99.0591 19.7636 99.2938 20.6824 99.7624 21.5088C100.244 22.3228 100.897 22.9641 101.724 23.4328C102.563 23.8891 103.495 24.1173 104.519 24.1173ZM119.064 15.4223C120.285 15.4223 121.253 15.7799 121.969 16.4953C122.697 17.1983 123.061 18.2281 123.061 19.5848V25.2273H121.747V19.7143C121.747 18.7029 121.494 17.9321 120.988 17.4018C120.483 16.8714 119.761 16.6063 118.823 16.6063C117.774 16.6063 116.941 16.9208 116.324 17.5498C115.72 18.1664 115.418 19.0236 115.418 20.1213V25.2273H114.104V15.4963H115.362V17.2908C115.72 16.6988 116.213 16.2424 116.843 15.9218C117.485 15.5888 118.225 15.4223 119.064 15.4223ZM126.629 11.5003H127.943V25.2273H126.629V11.5003ZM131.599 15.4963H132.913V25.2273H131.599V15.4963ZM132.266 13.3688C131.994 13.3688 131.766 13.2763 131.581 13.0913C131.396 12.9063 131.303 12.6843 131.303 12.4253C131.303 12.1786 131.396 11.9628 131.581 11.7778C131.766 11.5928 131.994 11.5003 132.266 11.5003C132.537 11.5003 132.765 11.5928 132.95 11.7778C133.136 11.9504 133.228 12.1601 133.228 12.4068C133.228 12.6781 133.136 12.9063 132.95 13.0913C132.765 13.2763 132.537 13.3688 132.266 13.3688ZM141.53 15.4223C142.751 15.4223 143.72 15.7799 144.436 16.4953C145.163 17.1983 145.527 18.2281 145.527 19.5848V25.2273H144.213V19.7143C144.213 18.7029 143.96 17.9321 143.455 17.4018C142.949 16.8714 142.227 16.6063 141.289 16.6063C140.24 16.6063 139.407 16.9208 138.791 17.5498C138.186 18.1664 137.884 19.0236 137.884 20.1213V25.2273H136.57V15.4963H137.828V17.2908C138.186 16.6988 138.68 16.2424 139.309 15.9218C139.951 15.5888 140.691 15.4223 141.53 15.4223ZM157.608 20.7688H149.465C149.539 21.7801 149.927 22.6003 150.631 23.2293C151.334 23.8459 152.222 24.1543 153.296 24.1543C153.9 24.1543 154.455 24.0494 154.961 23.8398C155.467 23.6178 155.905 23.2971 156.276 22.8778L157.016 23.7288C156.583 24.2468 156.041 24.6414 155.387 24.9128C154.745 25.1841 154.036 25.3198 153.259 25.3198C152.259 25.3198 151.371 25.1101 150.594 24.6908C149.828 24.2591 149.23 23.6671 148.798 22.9148C148.366 22.1624 148.151 21.3114 148.151 20.3618C148.151 19.4121 148.354 18.5611 148.761 17.8088C149.18 17.0564 149.748 16.4706 150.464 16.0513C151.192 15.6319 152.006 15.4223 152.907 15.4223C153.807 15.4223 154.616 15.6319 155.332 16.0513C156.047 16.4706 156.609 17.0564 157.016 17.8088C157.423 18.5488 157.627 19.3998 157.627 20.3618L157.608 20.7688ZM152.907 16.5508C151.969 16.5508 151.179 16.8529 150.538 17.4573C149.909 18.0493 149.55 18.8263 149.465 19.7883H156.368C156.281 18.8263 155.917 18.0493 155.276 17.4573C154.647 16.8529 153.857 16.5508 152.907 16.5508Z" fill="url(#paint1_linear)"/>
<path d="M37.0159 0H0V37H37.0159V0Z" fill="url(#paint2_linear)"/>
<path d="M22.6048 27.75L19.1977 22.8307H18.9958H15.4372V27.75H11.3486V10.0909H18.9958C20.5605 10.0909 21.915 10.3516 23.0591 10.873C24.2201 11.3943 25.1118 12.1343 25.7343 13.093C26.3569 14.0516 26.6682 15.1868 26.6682 16.4986C26.6682 17.8105 26.3485 18.9457 25.7091 19.9043C25.0866 20.8461 24.1948 21.5693 23.0339 22.0739L26.9963 27.75H22.6048ZM22.5291 16.4986C22.5291 15.5064 22.2094 14.7495 21.5701 14.2282C20.9307 13.69 19.9969 13.4209 18.7686 13.4209H15.4372V19.5764H18.7686C19.9969 19.5764 20.9307 19.3073 21.5701 18.7691C22.2094 18.2309 22.5291 17.4741 22.5291 16.4986Z" fill="white"/>
<defs>
<linearGradient id="paint0_linear" x1="94.8092" y1="21.3219" x2="44.3" y2="21.3219" gradientUnits="userSpaceOnUse">
<stop stop-color="#51A8F4"/>
<stop offset="1" stop-color="#62C3F5"/>
</linearGradient>
<linearGradient id="paint1_linear" x1="162.293" y1="21.3219" x2="89.0051" y2="21.3219" gradientUnits="userSpaceOnUse">
<stop stop-color="#51A8F4"/>
<stop offset="1" stop-color="#62C3F5"/>
</linearGradient>
<linearGradient id="paint2_linear" x1="38.9743" y1="22.4135" x2="-4.6025" y2="22.4135" gradientUnits="userSpaceOnUse">
<stop stop-color="#51A8F4"/>
<stop offset="1" stop-color="#62C3F5"/>
</linearGradient>
</defs>
</svg>
