<svg width="12" height="12" viewBox="0 0 12 12" fill="none" xmlns="http://www.w3.org/2000/svg">
<g clip-path="url(#clip0)">
<path d="M7.32166 6.00104L11.8083 1.51421C11.9317 1.3907 11.9998 1.22592 12 1.05021C12 0.87441 11.9319 0.709434 11.8083 0.586117L11.4151 0.193044C11.2915 0.0692392 11.1267 0.00143433 10.9508 0.00143433C10.7752 0.00143433 10.6104 0.0692392 10.4868 0.193044L6.0002 4.67958L1.51337 0.193044C1.38995 0.0692392 1.22507 0.00143433 1.04927 0.00143433C0.873659 0.00143433 0.70878 0.0692392 0.585366 0.193044L0.192 0.586117C-0.064 0.842117 -0.064 1.25851 0.192 1.51421L4.67873 6.00104L0.192 10.4877C0.0684878 10.6114 0.000487805 10.7762 0.000487805 10.9519C0.000487805 11.1276 0.0684878 11.2924 0.192 11.416L0.585268 11.809C0.708683 11.9327 0.873658 12.0007 1.04917 12.0007C1.22498 12.0007 1.38985 11.9327 1.51327 11.809L6.0001 7.32241L10.4867 11.809C10.6103 11.9327 10.7751 12.0007 10.9507 12.0007H10.9509C11.1266 12.0007 11.2914 11.9327 11.415 11.809L11.8082 11.416C11.9316 11.2925 11.9997 11.1276 11.9997 10.9519C11.9997 10.7762 11.9316 10.6114 11.8082 10.4878L7.32166 6.00104Z" fill="#A9AAAD"/>
</g>
<defs>
<clipPath id="clip0">
<rect width="12" height="12" fill="white"/>
</clipPath>
</defs>
</svg>
